<svg width="1031" height="997" viewBox="0 0 1031 997" fill="none" xmlns="http://www.w3.org/2000/svg">
<path opacity="0.3" d="M35 17.5C35 14.0388 33.9736 10.6554 32.0507 7.77752C30.1278 4.89966 27.3947 2.65664 24.197 1.33211C20.9993 0.00757459 17.4806 -0.338984 14.0859 0.336258C10.6913 1.0115 7.57305 2.67821 5.12563 5.12563C2.67821 7.57305 1.0115 10.6913 0.336258 14.0859C-0.338984 17.4806 0.00757463 20.9993 1.33211 24.197C2.65664 27.3947 4.89966 30.1278 7.77752 32.0507C10.6554 33.9736 14.0388 35 17.5 35L17.5 17.5H35Z" fill="#FFDC8F"/>
<path opacity="0.3" d="M1031 499.5C1031 496.039 1029.97 492.655 1028.05 489.778C1026.13 486.9 1023.39 484.657 1020.2 483.332C1017 482.008 1013.48 481.661 1010.09 482.336C1006.69 483.011 1003.57 484.678 1001.13 487.126C998.678 489.573 997.011 492.691 996.336 496.086C995.661 499.481 996.008 502.999 997.332 506.197C998.657 509.395 1000.9 512.128 1003.78 514.051C1006.66 515.974 1010.04 517 1013.5 517L1013.5 499.5H1031Z" fill="#FFDC8F"/>
<path opacity="0.3" d="M526 499.5C526 497.202 525.547 494.926 524.668 492.803C523.788 490.68 522.499 488.751 520.874 487.126C519.249 485.501 517.32 484.212 515.197 483.332C513.074 482.453 510.798 482 508.5 482C506.202 482 503.926 482.453 501.803 483.332C499.68 484.212 497.751 485.501 496.126 487.126C494.501 488.751 493.212 490.68 492.332 492.803C491.453 494.926 491 497.202 491 499.5L508.5 499.5H526Z" fill="#74DCDF"/>
<path opacity="0.3" d="M84 979.5C84 981.798 83.5473 984.074 82.6679 986.197C81.7884 988.32 80.4994 990.249 78.8744 991.874C77.2493 993.499 75.3202 994.788 73.197 995.668C71.0738 996.547 68.7981 997 66.5 997L66.5 979.5H84Z" fill="#74DCDF"/>
</svg>
