<svg width="105" height="231" viewBox="0 0 105 231" fill="none" xmlns="http://www.w3.org/2000/svg">
<path d="M5.41473 62.5L6.2565 63.0398L5.41473 62.5ZM2.41481 231L13.3524 227.299L4.67798 219.677L2.41481 231ZM102.915 0C102.915 50.7417 71.2718 77.5247 43.3129 85.9803C29.2783 90.2248 16.3565 89.7984 8.84086 85.6778C5.12016 83.6379 2.77898 80.7314 2.16371 77.0603C1.54279 73.3554 2.64513 68.6712 6.2565 63.0398L4.57295 61.9602C0.809358 67.8288 -0.5414 73.0196 0.191219 77.3909C0.929489 81.7959 3.74849 85.1668 7.87937 87.4315C16.0668 91.9204 29.6139 92.2127 43.8918 87.8947C72.5579 79.2253 104.915 51.7583 104.915 0H102.915ZM6.2565 63.0398C13.5362 51.6884 24.9934 46.973 36.1699 48.4396C47.359 49.9079 58.3755 57.5926 64.649 71.2824C77.1988 98.6678 70.7832 150.347 7.59203 223.593L9.10636 224.899C72.4359 151.493 79.5276 98.949 66.4672 70.4492C59.9357 56.1965 48.3678 48.0232 36.4301 46.4566C24.4798 44.8884 12.2678 49.9613 4.57295 61.9602L6.2565 63.0398Z" fill="#74DCDF"/>
</svg>
